<svg id="Layer_1" data-name="Layer 1" xmlns="http://www.w3.org/2000/svg" viewBox="0 0 147.29 190.36"><title>Red Bull KTM Racing Team logo - Brandlogos.net</title><polygon points="147.29 190.36 0 190.36 0 0 147.29 0 147.29 190.36 147.29 190.36" style="fill:#001d46"/><path d="M317.41,387.93c0-3.47-1.78-4.59-4.51-4.59H309v15.47h2.59v-6.36H313l2,6.36h2.67L315.51,392c1.19-.63,1.9-1.88,1.9-4.06Zm-4.68,2.33h-1.11v-4.75h1.3c1.24,0,1.86.6,1.86,2.29s-.63,2.46-2,2.46ZM344,387.93h0c0-3.47-1.78-4.59-4.51-4.59h-3.88v15.47h2.59v-6.36h1.42l2,6.36h2.67L342.14,392c1.19-.63,1.9-1.88,1.9-4.06Zm-4.68,2.33h-1.11v-4.75h1.3c1.24,0,1.86.6,1.86,2.29s-.63,2.46-2,2.46Zm-50.57-4.64h2.68v13.19h2.59V385.62h2.68v-2.28h-8v2.28Zm-28.65,13.19h2.74V392h3.58v-2.47h-3.58v-3.81h4.67v-2.38h-7.41v15.47Zm108.42,0h2.63V383.34h-2.63v15.47Zm-45.17-9.44h0l-2-6h-2.54l3.18,9.13v6.34h2.59V392.5l3.22-9.15h-2.44l-2,6Zm-52.63-6h0l-2.58,15.47h2.66l.45-3.21h2.65l.45,3.21h2.74l-2.78-15.47Zm.82,10.1h0l1-7.36,1,7.36ZM349,383.34h0l-2.58,15.47h2.66l.45-3.21h2.65l.45,3.21h2.74l-2.78-15.47Zm.82,10.1h0l1-7.36,1,7.36Zm-66.67-10.5h0a4,4,0,0,0-4,4v8.49a4,4,0,1,0,8,0v-1.95h-2.63v1.95h0a1.36,1.36,0,1,1-2.72,0v-8.48a1.36,1.36,0,1,1,2.72,0h0v1.74h2.63v-1.74a4,4,0,0,0-4-4Zm78.44,0h0a4,4,0,0,0-4,4v8.49a4,4,0,1,0,8,0v-1.95H363v1.95h0a1.36,1.36,0,0,1-2.72,0v-8.48a1.36,1.36,0,0,1,2.72,0h0v1.74h2.63v-1.74a4,4,0,0,0-4-4Zm-59.27,0h0a4,4,0,0,0-4,4v8.49a4,4,0,1,0,8,0v-8.49a4,4,0,0,0-4-4Zm1.36,12.48h0a1.36,1.36,0,0,1-2.72,0v-8.48a1.36,1.36,0,0,1,2.72,0h0v8.48ZM380.07,389h0c0,2.1.17,3.66.17,3.66l-3.28-9.3H374.4v15.47H377v-5.64c0-2.1-.17-3.91-.17-3.91l3.47,9.56h2.37V383.34h-2.63V389Zm10.82-.83h2.63v-1.22a4,4,0,0,0-8,0v8.49c0,2.21,1.46,4,3.48,4a2.81,2.81,0,0,0,2.65-1.66l.43,1.06h1.42v-7.53h-4.27V393h1.63v2.41h0a1.36,1.36,0,0,1-2.72,0v-8.48a1.36,1.36,0,0,1,2.72,0h0v1.22Z" transform="translate(-253 -218)" style="fill:#fff"/><polygon points="6.9 157.22 140.39 157.22 140.39 94 6.9 94 6.9 157.22 6.9 157.22 6.9 157.22" style="fill:#ff5900"/><polygon points="22.55 141.46 36.83 141.46 40.42 132.69 47.02 141.46 77.78 141.46 87.3 132.6 85.71 141.46 97.76 141.46 107.71 132.69 106.34 141.46 119.34 141.46 124.74 117 111.68 117 101.09 126.33 103.14 117 90.61 117 76.95 130.69 82.66 113.93 103.56 113.93 104.51 109.65 49.72 109.65 48.11 113.93 68.26 113.93 59.77 135.45 53.08 126.65 64.64 117 54.96 117 43.09 126.49 47.09 117 32.94 117 22.55 141.46 22.55 141.46 22.55 141.46"/><path d="M348.57,245.61A20.65,20.65,0,1,1,327.92,225a20.65,20.65,0,0,1,20.65,20.65Z" transform="translate(-253 -218)" style="fill:#ffcd00;fill-rule:evenodd"/><path d="M315.94,270l0,12.67a10.13,10.13,0,0,0-3.74-.71,10.7,10.7,0,0,0-9.89,7.12,10.62,10.62,0,0,0-2.6-4.47,11.21,11.21,0,0,0-8.09-3.18,11.36,11.36,0,0,0-9.29,4.88,10.9,10.9,0,0,0,.91-4.37,10.55,10.55,0,0,0-10.42-10.66H259.77v32.93h27.72a11.1,11.1,0,0,0,4.14.81,11.5,11.5,0,0,0,10.46-5.77l.55-1a10.63,10.63,0,0,0,9.58,6.37,10,10,0,0,0,2.81-.41H325.8V270Zm58.19.23h0v12H352.39a9.66,9.66,0,0,0,.09-1.35c0-5.56-4.6-9.6-10.95-9.6H329.65v32.94h14.11a11.07,11.07,0,0,0,9.84-5.3c1.51,3.55,5.56,6.09,10.3,6.09a12.68,12.68,0,0,0,4.36-.77h25.25v-34Zm-47.77-15.45h0a3.29,3.29,0,0,1-1.19-1.27c-.1-.18-.2-.36-.3-.54l-.11-.21a5.24,5.24,0,0,0-.43-.7l-.23-.26-.24-.25-.2-.23a.8.8,0,0,1-.12-.19,25.8,25.8,0,0,1-1.67-6.89c-.19-1.38-1-2.49-2.4-4.16-.17-.21-.36-.45-.56-.72l-.43-.55a13.81,13.81,0,0,0-1.1-1.27l-1.31-1.11-1.46-1.23a27.18,27.18,0,0,0-2.18-1.64,5.69,5.69,0,0,0-3.22-1,4.42,4.42,0,0,0-2.28.57,13.52,13.52,0,0,1-2.52,1.41c-.59.25-1.21.45-2,.7l-.81.27a5.37,5.37,0,0,0-2,1.23l-.31.3-.31.3a1.51,1.51,0,0,1-.47.33,2.73,2.73,0,0,1-.67.1l-.5,0-.35,0a4.25,4.25,0,0,0-2.37,1.06c-.27.22-.53.45-.78.68l-.12.11a6.1,6.1,0,0,1-.74.61,4.43,4.43,0,0,1-2.16.61,11.05,11.05,0,0,0-1.21.17,6.54,6.54,0,0,0-1.47.49,12.17,12.17,0,0,0-1.77,1.05l-.87.62-.76.54a5.64,5.64,0,0,1-3.14,1.32,1.73,1.73,0,0,1-1.87-1.54,2.72,2.72,0,0,1,1.19-2.36l.47-.38c.35-.28.68-.55,1-.8a7.28,7.28,0,0,0,1.1-1.11,3.06,3.06,0,0,0,.53-2.82,3,3,0,0,0-2.34-2.07,10.89,10.89,0,0,0-1.4-.3l-.16,0-.37-.06-.31-.08a26.05,26.05,0,0,1-2.59-1.58l-.13-.09-.09.13a3.82,3.82,0,0,0-.68,2.16,3.76,3.76,0,0,0,3.34,3.84.32.32,0,0,1,.15.56c-2.36,1.86-2.86,2.65-3,4.74a4.68,4.68,0,0,0,1.24,3.48,5.28,5.28,0,0,0,4,1.53,9,9,0,0,0,1.38-.11h0a.32.32,0,0,1,.32.29,8.18,8.18,0,0,0,.7,3.16.32.32,0,0,1-.05.4,1.51,1.51,0,0,1-.46.26,6,6,0,0,1-2,.32c-.47,0-.83.33-1.11,1-.09.23-.17.47-.24.71l0,.07c0,.12-.07.23-.11.33a1.87,1.87,0,0,1-.1.24,2,2,0,0,1-.43.51.32.32,0,0,1-.21.08h-.05a.32.32,0,0,1-.22-.16,1.58,1.58,0,0,0-1.09-.79h-.06a3,3,0,0,0-2.44,1.76.32.32,0,0,1-.26.2h-.06a1.26,1.26,0,0,0-1.15.84,3.89,3.89,0,0,0-.18.68l0,.16c0,.18-.07.36-.11.53a1.72,1.72,0,0,1-.16.4l-.11.19-.08.13a1.11,1.11,0,0,0-.09.89.81.81,0,0,0,.44.48,2.92,2.92,0,0,0,.7.25,6.09,6.09,0,0,0,1.1.16.42.42,0,0,0,.21-.06l.15-.1a.36.36,0,0,1,.21-.07h0l.23,0,.67.13h0l.64.13.25,0,.17,0h0a2,2,0,0,0,1.7-.81,3.88,3.88,0,0,0,.22-.33l.11-.19.08-.14c.08-.14.16-.27.25-.39a.32.32,0,0,1,.26-.13h.08l.33.07c.23,0,.44.06.53.07h.19a3.45,3.45,0,0,0,2.23-1l.19-.16.26-.23a5.37,5.37,0,0,1,.43-.33,1.37,1.37,0,0,1,.76-.28h.06c.23,0,1.08.08,2.53.31h.19a3.21,3.21,0,0,0,1.24-.33,10.19,10.19,0,0,0,1.18-.64,2.87,2.87,0,0,1,.32-.16l0,0,.37-.18a2.58,2.58,0,0,0,.87-.67,7.2,7.2,0,0,0,.6-1.08l.24-.48.41-.83a.32.32,0,0,1,.29-.17h.09a10.87,10.87,0,0,0,1.45-.14l.6-.09c.43-.07.8-.13,1.08-.14l.5,0,.57,0c.72,0,1.31.06,1.8.06l.76,0a4.89,4.89,0,0,0,1-.17l.25-.09.13,0a.32.32,0,0,1,.22.09l.5.46a.32.32,0,0,1-.18.55l-.19,0a1.18,1.18,0,0,0-.75.35.32.32,0,0,1-.25.12l-.13,0-.13,0a1.07,1.07,0,0,0-.27,0h-.4a10.23,10.23,0,0,0-1.54.09,2.6,2.6,0,0,0-.84.26.68.68,0,0,0-.39.63,6.79,6.79,0,0,0,1.45,2.78,1.55,1.55,0,0,0,.9.23h.16a.32.32,0,0,1,.28.17,3.18,3.18,0,0,0,2.52,1.93h.06a19.42,19.42,0,0,0,4.93-1.68l.07,0,.18,0,.33,0,.17,0a3.72,3.72,0,0,0,1.09-.25,3.34,3.34,0,0,0,1-1.34.31.31,0,0,1,.28-.17h0a.32.32,0,0,1,.27.22,2,2,0,0,0,.15.37,1.57,1.57,0,0,0,1.51.81h.12a5.91,5.91,0,0,0,1.51-.34l.27-.09a8.43,8.43,0,0,1,1.14-.33,2.46,2.46,0,0,1,.44,0H317l.45,0,.31,0,.46,0a2.44,2.44,0,0,0,1.08-.21,4.91,4.91,0,0,0,1-.6l.08-.06a.31.31,0,0,1,.18-.06.32.32,0,0,1,.21.08,5.93,5.93,0,0,0,3.94,1.49h.2a1.31,1.31,0,0,0,1-.44.7.7,0,0,0,.12-.61.32.32,0,0,1,0-.25.32.32,0,0,1,.21-.14,1.57,1.57,0,0,0,.78-.34.84.84,0,0,0,.29-.58.43.43,0,0,0-.15-.34,4.24,4.24,0,0,0-1-.63Zm-14.05-2.45h0c-.22.27-.54.35-.83.87-.59-.23-.7-1-.81-1.35.47-.09,1.59-.3,2.18-.39a2.74,2.74,0,0,0-.54.87Zm17.87,4.87h0a.31.31,0,0,1,.06.27.42.42,0,0,0,.08.38,1.61,1.61,0,0,0,1.07.46h.13a5,5,0,0,0,3.73-1.59.32.32,0,0,1,.44,0,2.3,2.3,0,0,0,1.59.57h.07a8.45,8.45,0,0,0,.9-.07l.41,0H339a3.09,3.09,0,0,1,.7.17l.66.25.2.08a5.26,5.26,0,0,0,1.63.43h.08a1.88,1.88,0,0,0,1.73-1.43.31.31,0,0,1,.3-.22h0a.31.31,0,0,1,.3.24q0,.18.09.35a2.63,2.63,0,0,0,.77,1.32.86.86,0,0,0,.45.19,5.22,5.22,0,0,0,.77,0,.32.32,0,0,1,.19.06l.17.16.22.22a.92.92,0,0,0,.28.17,20.72,20.72,0,0,0,4.76,1.16h0c1.43,0,1.92-1.37,2.06-2a.32.32,0,0,1,.25-.24c1.34-.26,2.07-2.27,2.07-2.62,0-.65-.26-.9-.9-.95h-2.33l-.16,0h-.09a.32.32,0,0,1-.27-.15.49.49,0,0,0-.33-.23.32.32,0,0,1-.24-.24.31.31,0,0,1,.11-.32l.14-.12a.31.31,0,0,1,.22-.09h0c.32,0,.94,0,1.52,0l.73,0c.47,0,.86-.07,1.27-.12a18.58,18.58,0,0,1,2.32-.15l2.18.12a4.15,4.15,0,0,0,1.26-.18l.1,0a.32.32,0,0,1,.17.05.31.31,0,0,1,.14.23,6,6,0,0,0,1,2.81,2.24,2.24,0,0,0,.56.52l.39.24.23.14A4.09,4.09,0,0,0,367,258a3,3,0,0,0,.74-.09,3.21,3.21,0,0,1,.82-.1l.41,0a6.87,6.87,0,0,1,.92.18l.07,0a4.38,4.38,0,0,1,1.2.5,9.13,9.13,0,0,1,.86.6l.07.05a3,3,0,0,0,1.82.81H374l.13,0,.15,0,.35-.14a2.31,2.31,0,0,1,.4-.13h.06a.32.32,0,0,1,.26.14l.12.19a4,4,0,0,0,.25.38,2.42,2.42,0,0,0,2.06.91h.33a7.64,7.64,0,0,0,1.22-.08h.05a.32.32,0,0,1,.18.06.72.72,0,0,0,.43.14,4,4,0,0,0,1.23-.25,2.39,2.39,0,0,0,.58-.3.74.74,0,0,0,.33-.46,1.18,1.18,0,0,0,0-.46,4.62,4.62,0,0,0-.16-.48l0-.13-.12-.32a1.26,1.26,0,0,1,0-.14.33.33,0,0,1,0-.09,1.94,1.94,0,0,0-.33-1.31.8.8,0,0,0-.61-.45.31.31,0,0,1-.29.2h-.05a.33.33,0,0,1-.27-.36s0-.08,0-.13a.85.85,0,0,0-.11-.45,4.87,4.87,0,0,0-2.19-1.56,1.68,1.68,0,0,0-1.25.65.31.31,0,0,1-.24.12h0a.32.32,0,0,1-.25-.16A2.18,2.18,0,0,1,376,255a5.44,5.44,0,0,1-.21-.78l0-.2a1.82,1.82,0,0,0-1.27-1.6l-.28,0-.31,0h-.08a4.51,4.51,0,0,1-.55,0c-.37-.05-.61-.17-.61-.58a.32.32,0,0,1,0-.1l.1-.28a7.4,7.4,0,0,0,.26-.9,4.37,4.37,0,0,0,0-1.91.32.32,0,0,1,.31-.39h0a5.23,5.23,0,0,0,.75.06c1.91,0,4.93-1.24,4.93-4.58,0-1.92-1.55-3.74-2.86-4.93a.32.32,0,0,1,.13-.54,3.44,3.44,0,0,0,2.87-3.47v-.12a5.5,5.5,0,0,0-.05-.92,3.38,3.38,0,0,0-.53-1.32.19.19,0,0,0-.18-.09h-.08a.76.76,0,0,0-.21.1,7.51,7.51,0,0,0-.62.5,2.53,2.53,0,0,1-.88.47c-.23.08-.47.14-.73.21l-.42.11a6.92,6.92,0,0,0-2.92,1.55,2.73,2.73,0,0,0-.86,1.83,2.83,2.83,0,0,0,.65,1.81,12.35,12.35,0,0,0,1.51,1.62l.2.19.6.58a10,10,0,0,1,.69.75,2.34,2.34,0,0,1,.65,1.42,1.47,1.47,0,0,1-1.61,1.5,5.39,5.39,0,0,1-3.05-1.18l-.54-.36c-.38-.26-.78-.52-1.21-.8a18.56,18.56,0,0,0-2.31-1.24,8.42,8.42,0,0,0-1.29-.45c-.33-.09-.65-.15-1-.22l-.15,0a5.09,5.09,0,0,1-1.91-.7l-.55-.37c-.33-.22-.66-.45-1-.67a7.12,7.12,0,0,0-1.68-.82,3.38,3.38,0,0,0-.51-.11l-.26,0-.2,0a2.24,2.24,0,0,1-.86-.27,6,6,0,0,1-.54-.36l-.4-.31-.09-.07a8.46,8.46,0,0,0-1.28-.85,9.94,9.94,0,0,0-2.46-.88l-.14,0c-.29-.07-.53-.13-.75-.2a1.69,1.69,0,0,1-.29-.12l-.1-.06-.06-.06a6.1,6.1,0,0,0-4.68-2.5l-.41,0a5.51,5.51,0,0,0-2.38,1.35l-.85.71c-.58.5-1.18,1-1.77,1.43a30.33,30.33,0,0,0-5.6,4.61c-2,2.13-2.56,4.84-3.11,7.23l0,.17a28.85,28.85,0,0,1-.93,3.46,8.43,8.43,0,0,1-1.81,3.06,11.6,11.6,0,0,1-.95.91c-.18.15-.31.24-.43.32l-.08.06a.73.73,0,0,0-.36.82,1.43,1.43,0,0,0,1.43.79.32.32,0,0,1,.24.12Zm15.29-5.37h0c-.09.17-.71,1.58-.81,1.79-.21-.41-.95-1.31-.85-1.88.54.07,1.36.07,1.66.09Z" transform="translate(-253 -218)" style="fill:#fff"/><path d="M379.93,260.23c.07.13,0,.39.2.39l1.17-.39c.2-.33-.18-.59-.26-.9s0-1-.26-1.39c-.24-.18-.46-.46-.77-.39s-.64.48-.59.86a12.82,12.82,0,0,1,.5,1.82Zm-104.52.22h0c.22-.72.39-1.5.64-2.13v-.18c-.22-.27-.44-.62-.81-.7a1.25,1.25,0,0,0-.68.75c-.09.59,0,1.14-.42,1.56,0,.11-.13.24,0,.35a6.26,6.26,0,0,0,1.28.35Zm101.73-4.52h0a4.8,4.8,0,0,0,.77,1.21.86.86,0,0,0,.64.39,1,1,0,0,0,.64-.27.74.74,0,0,0,.22-.61,7.21,7.21,0,0,0-1.34-1.14c-.37-.31-.75.15-.94.42Zm-100.65,1.42h0a1,1,0,0,0,.68,0,3.71,3.71,0,0,0,1.23-1.49,1.21,1.21,0,0,0-.42-.5c-.11-.09-.27,0-.4,0a9.87,9.87,0,0,1-1.27.9c-.18.13-.11.4-.15.61s.22.31.33.42Zm49.41-2h0c-1.1-.64-1.54-1.85-2.22-2.81-.24-.35-.66-.57-.88-.92a25.13,25.13,0,0,1-1.67-6.75,7.21,7.21,0,0,0-.62-1.8A39.28,39.28,0,0,0,317,238.5l-.35-.35-4.35-3.62a8.87,8.87,0,0,0-1.74-.94,4.4,4.4,0,0,0-3.06.11,19.66,19.66,0,0,1-2.77,1.54c-1.43.64-3,.77-4.28,1.87-.72.62-1.32,1.6-2.39,1.43a4.59,4.59,0,0,0-3.16,1.12,6,6,0,0,1-2.62,1.8c-.92.39-2,.2-3,.55-1.49.37-2.66,1.54-3.93,2.44A7.64,7.64,0,0,1,281.3,246a2.73,2.73,0,0,1-2.35-1.78,3,3,0,0,1,.94-3.08c.94-1.12,2.42-1.78,3.16-3.07a2.36,2.36,0,0,0-.18-2.42c-1-1-2.37-1-3.63-1.36a10.87,10.87,0,0,1-2.15-1.23,2.17,2.17,0,0,0-.33,1.39,3.33,3.33,0,0,0,2.13,2.61,10.78,10.78,0,0,0,2,.22.61.61,0,0,1,.39.46.73.73,0,0,1-.22.5,21,21,0,0,0-3,2.75,4.07,4.07,0,0,0-.55,4,4.27,4.27,0,0,0,3.45,2.55,7.8,7.8,0,0,0,2.94-.31c.13,0,.18.13.24.2a19.43,19.43,0,0,0,.15,2.37,14.6,14.6,0,0,0,.66,1.91.82.82,0,0,1-.17.68,7.87,7.87,0,0,1-1.67.94l-1.43.09-.28.13a7.22,7.22,0,0,0-.88,2,5.14,5.14,0,0,1-1.93,1.5,4.51,4.51,0,0,1-.77,1,1.4,1.4,0,0,1-.84.31,4.17,4.17,0,0,0-.73,2.13c.81.07,1.65.51,2.44.07s.83-1.14,1.34-1.63,1-.11,1.49,0c.71,0,1.23-.48,1.83-.72.42-.28.77-.75,1.21-1a5,5,0,0,1,2.9,0,3.09,3.09,0,0,0,2-.2,6.18,6.18,0,0,1,1.74-.94,2.8,2.8,0,0,0,1.08-1.47c.18-.5.66-.88.62-1.45-.15-.13-.31-.4-.53-.39-.28.39-.48.79-.79,1.16-1.33,1.81-2.37,2-5.06,2a6.27,6.27,0,0,0-5.18,2.09.25.25,0,0,1-.29-.05,1.35,1.35,0,0,1,.22-.75c1.23-1.74,3.14-2.15,5.16-2.18a7.85,7.85,0,0,0,3.08-.73,4.66,4.66,0,0,0,2.2-2.39c.24-1.16.33-2.4.62-3.51,0-.11.31-.19.4-.16s.33.12.33.25a6.79,6.79,0,0,0-.13,3.58c.88,1.16,2.51.53,3.71.48a21.37,21.37,0,0,1,3.44.06c.59,0,1,.13,1.48-.24a1,1,0,0,0,.14-.7c0-.33-.31-.53,0-.81a.42.42,0,0,1,.44.07,5.11,5.11,0,0,0,.53,1.36,7,7,0,0,0,2.26,1.76,3,3,0,0,1,1.47,2.22c0,.48-.44.81-.81,1a3.74,3.74,0,0,1-2,.5c-1-.48-1.23-1.51-1.87-2.26a1.54,1.54,0,0,0-1.32-.4,6.88,6.88,0,0,0-1.54.24.49.49,0,0,0-.15.44c.33.61.7,1.19,1.06,1.8.42.26,1-.15,1.38.31a5,5,0,0,0,1,1.41,1.71,1.71,0,0,0,1.76.33,22.33,22.33,0,0,0,4-1.54h.42c.51-.05,1.08,0,1.45-.4a14.27,14.27,0,0,0,1-1.76,1.84,1.84,0,0,0,0-1.52,8.63,8.63,0,0,1-1.3-2.52,2.73,2.73,0,0,0-.94-.26c-.16.07-.4,0-.5.22l1.45,2.86a1.51,1.51,0,0,1,.15.83,3.71,3.71,0,0,1-1,1.63c-.09.05-.2.11-.27,0a6.63,6.63,0,0,0,.42-2l-1.41-2.55c-.17-.35-.46-.66-.44-1.06a.48.48,0,0,1,.31-.38c.62-.2,1.38-.17,1.85-.66a7.09,7.09,0,0,0,.92-3.08.45.45,0,0,1,.29-.21c.11,0,.24.12.29.18a4.78,4.78,0,0,1-.81,3.54c0,.13-.09.29.06.39a2.66,2.66,0,0,0,2-.31,11.27,11.27,0,0,0,2.13-.27.24.24,0,0,1,.15.18,3.52,3.52,0,0,0-.84,1.74c-.55.57-1.34,1.07-1.4,1.89.09.4.44,0,.68.05a.22.22,0,0,1,.18.22l-.55.81c-.29.48.05,1,.05,1.49a1,1,0,0,0,1,.55,8,8,0,0,0,2.29-.61,5,5,0,0,1,2.7-.18,3.71,3.71,0,0,0,2.15-1.19,1.31,1.31,0,0,1,.9.5,4.72,4.72,0,0,0,3.73,1.49l.13-.07a.22.22,0,0,0-.06-.33l-.86-.44a3.42,3.42,0,0,1-1.56-1.58,8.12,8.12,0,0,0-.88-1.85c-.13-.29-.42-.53-.55-.83,0,0,.07-.09.13-.07a4,4,0,0,1,2,2.11,3.14,3.14,0,0,0,3,1.58l.11-.09a.19.19,0,0,0,0-.22l-.66-.33Zm-14.45-12.94h0v0h0a.18.18,0,0,1-.24,0l0,0v0a11.7,11.7,0,0,0-.6-2.23l-.17-.29-.07-.09-.15-.21a.69.69,0,0,1-.07-.73l0,0a.53.53,0,0,1,.53-.08h0a2.42,2.42,0,0,1,.66.83,4,4,0,0,1,.28,1.53,4.84,4.84,0,0,1-.17,1.27Zm7,12.12h0s0,0,0,0h0a3.28,3.28,0,0,1-1.14.13h0l-.08,0-.08-.05a.18.18,0,0,1-.07-.21,1.79,1.79,0,0,1,1.23-1.15h.13l.13,0a.27.27,0,0,1,.2.23,2.71,2.71,0,0,1,0,.29.92.92,0,0,1-.3.77Zm2.25-5h0l-.05.16,0,.16a.36.36,0,0,1-.26.25.22.22,0,0,1-.2,0,.23.23,0,0,1-.09-.19v-.16l-.06-.56a1.49,1.49,0,0,0-.24-.64l-.25-.29-.28-.32a.92.92,0,0,0-.61-.33,1,1,0,0,0-.45.32l-.2.24-.17.23c-.06.11-.2,0-.2,0h0v0a.85.85,0,0,1-.06-.32,1.19,1.19,0,0,1,.11-.46l.15-.31.17-.36,0,0a.78.78,0,0,0,.16-.29l0-.12.1-.26A.48.48,0,0,1,319,246a1.44,1.44,0,0,1,.53.55l.08.14.1.17.22.28a2.91,2.91,0,0,1,.88,1.94,2.34,2.34,0,0,1-.05.49Zm56,10.61h0c.57.55,1.7.32,2.46.32l0-.08a6.64,6.64,0,0,0-.59-2c-.94.06-1.4-1-1.95-1.54s-1.36-.84-1.34-1.63a12.19,12.19,0,0,1-.35-1.21c-.13-.33-.26-.81-.7-.88-.79-.13-1.74.09-2.24-.64-.51-.55.06-1.19.15-1.73a5.29,5.29,0,0,0,.13-2.28c0-.4-.29-.73-.22-1.14s.62-.09.9-.06a4.94,4.94,0,0,0,3.18-.26,3.8,3.8,0,0,0,2.26-3.41c-.18-1.93-1.56-3.5-3-4.75a2,2,0,0,1-.72-.84c0-.75.81-.39,1.23-.57a4.33,4.33,0,0,0,1.45-.55,3.18,3.18,0,0,0,1.14-3.36c0-.11,0-.28-.2-.28a5,5,0,0,1-.66.55c-.72.42-1.67.35-2.42.72a4.24,4.24,0,0,0-2.5,2,2.28,2.28,0,0,0,.26,1.52c1.14,1.8,3.54,3,3.93,5.14a2,2,0,0,1-1,2,3.9,3.9,0,0,1-3.6-.15c-2-1-3.71-2.64-5.84-3.32-1.34-.61-3-.46-4.18-1.39a9.94,9.94,0,0,0-2.73-1.61,13.44,13.44,0,0,1-2.13-.55,10,10,0,0,0-2.13-1.52,14.44,14.44,0,0,0-3.41-1.06c-.7-.17-1-.94-1.52-1.32a4.71,4.71,0,0,0-3.38-1.21,2.48,2.48,0,0,0-1.4.77c-2.81,2.46-6,4.15-8.59,7-1.73,1.78-2.18,4-2.83,6.22-.92,3.3-1.3,6.94-4.63,9a.26.26,0,0,0,.05.33,2.44,2.44,0,0,0,2.33-.73,17.05,17.05,0,0,1,1.95-2.59l.18-.09c.09,0,.2.07.17.2-.22.73-.88,1.27-1.1,2a5.7,5.7,0,0,1-1.85,2.18l0,.11a.23.23,0,0,0,.18.2c1.62.07,2.77-1.08,3.85-2.17a.4.4,0,0,1,.4-.06,4.18,4.18,0,0,0,1.54,1,9.54,9.54,0,0,1,2.06-.13c1,.29,1.91.7,2.88,1,.5,0,.86-.5,1.12-.9s-.09-1-.05-1.41c.24-.15.51,0,.77,0a.43.43,0,0,0,.2-.33c-.18-.84-.94-1.47-1.17-2.26-.37-1-1.56-1.62-1.78-2.7.05-.07.15-.18.24-.11a6.08,6.08,0,0,0,2.46,1.47,12.83,12.83,0,0,0,2.22.09.25.25,0,0,0,.16-.29,11.54,11.54,0,0,1-.79-2,6,6,0,0,1-.15-3.14c.05-.07.29-.21.4-.18a.54.54,0,0,1,.35.34c.11,1.56-.05,3,.88,4.22.4.64,1.1.77,1.6,1.27a1.07,1.07,0,0,1,.09,1L347.56,254a3.57,3.57,0,0,0-.61,1.18,4.66,4.66,0,0,0,0,1.34c-.07,0-.11-.07-.18-.11a2.54,2.54,0,0,1-.31-2.09l1.41-2.19.06-.17a4.19,4.19,0,0,0-1-.4,1.11,1.11,0,0,0-.39.39l-1.38,2.5a1.41,1.41,0,0,0-.11.83,3.85,3.85,0,0,0,.33,1,4.65,4.65,0,0,0,.44,1.32c.35.38.83,0,1.27.15s.61.64,1,.77c1,.33,2.06.51,3,.9.51.17,1.25.37,1.71-.06a2.11,2.11,0,0,0,.92-1.67c.2-.28.6-.16.9-.26.55-.37.73-1,1.14-1.52l.07-.26a.53.53,0,0,0-.35-.31h-1.87c-.86.11-.94,1.06-1.3,1.65a1,1,0,0,1-1,.48c-.88-.24-2-.37-2.37-1.32a.72.72,0,0,1,.13-.7,11.64,11.64,0,0,1,1.58-1.58,3.24,3.24,0,0,0,2-1.49c.22-.31.18-.77.55-1,.11,0,.36,0,.43.08.17.53-.13.91-.3,1.37,2,.2,3.55-.38,5.5-.3.83,0,1.57.09,2.37,0a2,2,0,0,0,1.95-1.21c.37-1.08-.14-2.31-.33-3.34l.22-.18c.13-.07.34,0,.44.1a16.7,16.7,0,0,1,.73,3.21,5.64,5.64,0,0,0,1.06,2.33,4,4,0,0,0,4.22,1.6,5.73,5.73,0,0,1,4.9,2.44v.09c0,.07-.11.16-.2.15a7.28,7.28,0,0,0-3.43-1.84c-1.35-.25-2.57.46-4-.11-1.7-.56-2.42-1.61-3.14-3.29h-.15a.28.28,0,0,0-.2.24l.18,1.14a3.13,3.13,0,0,0,1.51,2.42c.77.46,1.52,1.12,2.48.86a5.82,5.82,0,0,1,4.64,1c.42.24.75.68,1.21.84a1.54,1.54,0,0,0,1.51-.24c.94-.31,1.16.86,1.8,1.28Zm-37.25-5.27h0v0a.73.73,0,0,1-.47.11l-.35,0-.12,0h0a1.17,1.17,0,0,1-.48-1,.38.38,0,0,1,.14-.31l0,0h0a1.33,1.33,0,0,1,1.08.43v0l.07.14.11.23,0,0,0,0a.65.65,0,0,1,0,.23.45.45,0,0,1,0,.21Zm.42-6.35h0l0,.18a.64.64,0,0,1-.17.17.22.22,0,0,1-.24,0,.54.54,0,0,1-.24-.19l-.08-.12-.07-.12c-.08-.14-.16-.25-.35-.23a.63.63,0,0,0-.41.14l-.12.09-.07.05-.19.13-.26.22-.11.1-.37.34a1.54,1.54,0,0,0-.46.8l-.05.19,0,.08,0,.12a.51.51,0,0,1-.2.35.33.33,0,0,1-.28-.05.24.24,0,0,1-.1-.19,2.73,2.73,0,0,1,.85-2.28,5.66,5.66,0,0,0,.79-.83l.24-.31.48-.6.05,0a.64.64,0,0,1,.65.38,5.72,5.72,0,0,1,.78,1.39.39.39,0,0,1,0,.12.49.49,0,0,1,0,.08Zm7.49-10.44h0l-.08.16-.09.14-.58.54-.62.58a6.83,6.83,0,0,0-1,1.2,5.39,5.39,0,0,0-.49.89.18.18,0,0,1-.21.07h0v0a1.15,1.15,0,0,1-.06-.37,1.82,1.82,0,0,1,0-.33l.12-.46.06-.21a6.38,6.38,0,0,1,2.16-2.68.75.75,0,0,1,.56-.08.37.37,0,0,1,.24.22.44.44,0,0,1,.07.23.45.45,0,0,1,0,.16l0,0,0,0ZM352,254.95h0c-.5.09-1.06,0-1.56.05a1.76,1.76,0,0,0-.37,1.17c.06.46.57.5.9.62s.77.15.94-.18a7.08,7.08,0,0,0,.42-1.5.25.25,0,0,0-.33-.17Zm-48.91.55h0c.37.4.35,1,.77,1.34a1.87,1.87,0,0,0,1.47-.46c.24-.2-.11-.46-.15-.7-.24-.35-.07-1-.66-1.06a11.38,11.38,0,0,1-1.76.11l-.17.11c-.11.35.4.35.5.66Zm73.09,46.77h5.56v-30h-5.56v30Zm-84.53-18.75h0a9.76,9.76,0,1,0,8.67,14.8l-4.63-2.18a3.89,3.89,0,0,1-3.57,2.22,3.76,3.76,0,0,1-3.88-3.63c0-.13-.05-.08,0-.2h12.6a11.88,11.88,0,0,0,.05-1.22c.09-6.31-4-9.77-9.2-9.77Zm-3.43,7.64h0a3.48,3.48,0,1,1,7,0ZM318,272.09h0l0,14.36a8.26,8.26,0,0,0-5.79-2.4c-4.76,0-8.61,4.17-8.61,9.3s3.86,9.3,8.61,9.3a8.23,8.23,0,0,0,5.82-2.47v2.06h5.72V272.09Zm-4.13,25.76h0a4.58,4.58,0,1,1,4.23-4.57,4.41,4.41,0,0,1-4.23,4.57Zm72.07-25.53h0v30h5.56v-30Zm-18.73,22.47h0a3.26,3.26,0,0,1-6.52,0V284.34H355V295.9c0,3.94,4,7.14,8.9,7.14s8.9-3.19,8.9-7.14V284.34h-5.62v10.45Zm-19.32-8.19h0a7.46,7.46,0,0,0,2.58-5.65c0-4.15-3.35-7.56-8.91-7.56H331.7v28.85h12.07c5.33,0,9.09-3.7,9.09-8.22s-2-6.07-5-7.43Zm-4.64,10.59h-5.6v-18.7h4a3.09,3.09,0,0,1,0,6.17h-2.07v5.22h3.68a3.66,3.66,0,0,1,0,7.31Zm-62-15.19h0a8.5,8.5,0,0,0-8.37-8.62h-11v28.84h5.91V278.49h3.88a3.75,3.75,0,0,1,3.84,3.77,3.85,3.85,0,0,1-4,3.77l-1.85,0v7l6.39,9.22h7l-8.17-11.85a8.58,8.58,0,0,0,6.38-8.38Z" transform="translate(-253 -218)" style="fill:red"/></svg>