<?xml version="1.0" encoding="UTF-8"?>
<svg width="24px" height="24px" viewBox="0 0 14 14" version="1.1" xmlns="http://www.w3.org/2000/svg" xmlns:xlink="http://www.w3.org/1999/xlink">
    <title>20532900-0FE2-44E6-9EA0-20A2587A1845</title>
    <desc>Created with sketchtool.</desc>
    <g id="Social-Icons" stroke="none" stroke-width="1" fill="none" fill-rule="evenodd">
        <g id="social-icons" transform="translate(-111.000000, -5.000000)" fill="#DADBE0">
            <g id="social-bar">
                <g id="social-menu" transform="translate(10.000000, 0.000000)">
                    <g id="social-default">
                        <g id="molecule/button/social/button-social-spotify-atom/button/social/button-social-small" transform="translate(96.000000, 0.000000)">
                            <g id="icon/social/negative/instagram-atom/icon/social/icon-social-spotify" transform="translate(5.000000, 5.000000)">
                                <path d="M10.7643201,6.27786646 C8.71304416,5.05966964 5.32951034,4.94766028 3.37132225,5.54197862 C3.05679935,5.63742214 2.72426681,5.45990934 2.62897526,5.14546243 C2.53368371,4.83078755 2.71104454,4.49848297 3.02571941,4.40288746 C5.27358165,3.72057262 9.0103933,3.8523394 11.3718607,5.25412823 C11.6546957,5.42206628 11.7474796,5.78735055 11.5798455,6.06972965 C11.4120594,6.3525647 11.0464712,6.44580451 10.7643201,6.27786646 Z M10.6971447,8.08217434 C10.5532195,8.31569182 10.2478914,8.38894625 10.0146779,8.24555299 C8.30452138,7.19438235 5.69677022,6.88981416 3.67353466,7.5039659 C3.41114096,7.58322354 3.13408117,7.43534686 3.05436759,7.17340909 C2.97533792,6.91109137 3.12329058,6.63448752 3.38522834,6.55469795 C5.69646626,5.85330961 8.56972671,6.19298522 10.533918,7.40008747 C10.7671315,7.5437087 10.8405379,7.84918878 10.6971447,8.08217434 Z M9.91847458,9.81497613 C9.80410953,10.0025196 9.55995343,10.0612599 9.37309385,9.94697088 C7.87874911,9.03364622 5.99784288,8.82740916 3.78273232,9.33335106 C3.56927621,9.38228866 3.35650401,9.24854614 3.30779438,9.03509003 C3.25893276,8.82170991 3.39221934,8.60893771 3.60613139,8.56022807 C6.03021465,8.00610848 8.10953095,8.24456532 9.78685978,9.2695194 C9.97387134,9.38373247 10.0327636,9.62804055 9.91847458,9.81497613 Z M7,0.636363636 C3.48553529,0.636363636 0.636363636,3.4854593 0.636363636,6.99992401 C0.636363636,10.5147687 3.48553529,13.3636364 7,13.3636364 C10.5146167,13.3636364 13.3636364,10.5147687 13.3636364,6.99992401 C13.3636364,3.4854593 10.5146167,0.636363636 7,0.636363636 L7,0.636363636 Z" id="Spotify_Icon_RGB_Black"></path>
                            </g>
                        </g>
                    </g>
                </g>
            </g>
        </g>
    </g>
</svg>