<?xml version="1.0" encoding="utf-8"?>
<svg viewBox="0 0 500 500" xmlns="http://www.w3.org/2000/svg">
  <path d="M 40.305 80.623 L 97.861 24.23 C 72.738 34.336 52.135 54.683 40.305 80.623 Z M 394.181 24.23 L 450.492 77.981 C 438.489 53.303 418.445 33.993 394.181 24.23 Z M 53.02 133.567 L 49.291 133.567 L 49.291 131.464 C 49.291 80.299 87.803 38.247 134.659 38.247 L 358.669 38.247 C 405.524 38.247 444.035 80.299 444.035 131.464 L 444.035 133.567 L 440.306 133.567 C 439.26 133.119 438.13 132.866 436.975 132.866 L 56.351 132.866 C 55.196 132.866 54.066 133.119 53.02 133.567 Z M 130.166 102.027 L 154.556 75.394 C 158.407 71.189 158.407 64.88 154.556 60.676 C 150.706 56.47 144.929 56.47 141.077 60.676 L 116.687 87.309 C 112.834 91.515 112.834 97.822 116.687 102.027 C 118.611 104.13 121.18 104.831 123.747 104.831 C 125.673 104.831 128.24 103.429 130.166 102.027 Z M 241.208 102.027 L 265.598 75.394 C 269.448 71.189 269.448 64.88 265.598 60.676 C 261.747 56.47 255.971 56.47 252.118 60.676 L 227.728 87.309 C 223.878 91.515 223.878 97.822 227.728 102.027 C 229.654 104.13 232.221 104.831 234.788 104.831 C 236.715 104.831 239.282 103.429 241.208 102.027 Z M 348.399 102.027 L 372.789 75.394 C 376.639 71.189 376.639 64.88 372.789 60.676 C 368.938 56.47 363.16 56.47 359.31 60.676 L 334.919 87.309 C 331.067 91.515 331.067 97.822 334.919 102.027 C 336.844 104.13 339.413 104.831 341.98 104.831 C 343.906 104.831 346.473 103.429 348.399 102.027 Z" style="fill: rgb(255, 166, 0);"/>
  <path style="stroke: rgb(0, 0, 0); fill: rgb(132, 73, 0);" d="M 49.72 190.73 C 11.652 219.634 10.895 246.884 47.449 272.487 C 47.621 272.607 185.019 272.607 459.627 272.487 C 462.913 272.487 465.685 270.56 467.945 266.705 C 475.653 253.55 479.184 238.41 478.529 221.289 C 477.945 206.121 468.117 195.384 449.036 189.084 C 443.483 187.247 437.681 187.52 431.641 189.903 C 426.141 192.07 420.344 192.895 414.246 192.385 C 400.915 191.263 387.559 190.71 374.163 190.73 C 368.443 190.737 364.162 194.872 361.306 203.122 C 359.663 207.866 356.132 211.174 350.721 213.033 C 345.644 214.777 341.106 217.805 337.107 222.115 C 332.262 227.337 327.974 221.555 324.251 204.769 C 323.038 199.281 319.509 195.153 313.66 192.385 C 306.26 188.88 298.191 188.88 289.463 192.385 C 289.463 192.385 209.551 191.83 49.72 190.73 Z"/>
  <path style="stroke: rgb(255, 0, 0); fill: rgb(255, 217, 0);" d="M 55.767 142.005 L 438.445 142.833 L 436.937 191.558 L 370.383 193.212 L 339.373 223.763 L 312.146 189.084 L 55.01 188.257 L 55.767 142.005 Z"/>
  <path style="stroke: rgb(0, 0, 0); fill: rgb(0, 188, 41);" d="M 39.888 275.788 L 456.597 274.969 L 480.8 303.046 L 431.634 355.065 L 318.198 335.252 L 250.136 359.2 L 166.186 328.641 L 82.996 358.373 L 17.198 311.303 L 39.888 275.788 Z"/>
  <path style="stroke: rgb(0, 0, 0); fill: rgb(255, 166, 0);" d="M 39.888 345.988 L 44.425 404.617 L 86.776 436.002 L 419.542 433.52 L 453.573 388.932 L 453.573 337.725 L 421.808 348.462 L 384.752 353.417 L 323.494 330.296 L 290.971 336.904 L 280.386 357.546 L 204.757 348.462 L 181.308 325.34 L 148.034 329.469 L 138.959 347.636 L 85.26 354.245 L 39.888 345.988 Z"/>
  <path d="M 394.612 447.559 L 98.073 447.559 C 60.202 447.559 29.392 413.917 29.392 372.566 L 29.392 330.513 C 29.392 324.906 33.886 320.001 39.021 320.001 L 39.662 320.001 C 43.515 320.001 47.365 322.803 48.649 327.009 C 51.217 336.119 69.188 346.634 93.58 346.634 C 114.761 346.634 129.523 338.923 135.943 331.915 C 141.719 324.205 150.706 320.001 160.975 320.001 L 179.589 320.001 C 189.216 320.001 198.202 324.205 204.622 331.915 C 210.398 339.624 225.802 346.634 246.984 346.634 C 267.524 346.634 282.928 338.923 289.347 331.915 C 295.124 324.205 304.11 320.001 314.38 320.001 L 329.784 320.001 C 339.413 320.001 348.399 324.205 354.816 331.915 C 360.593 339.624 375.999 346.634 397.179 346.634 C 420.928 346.634 438.901 336.82 441.468 327.009 C 442.751 322.803 446.604 320.001 450.454 320.001 L 453.664 320.001 C 458.798 320.001 463.291 324.906 463.291 330.513 L 463.291 372.566 C 463.291 413.917 432.482 447.559 394.612 447.559 Z M 48.649 355.744 L 48.649 372.566 C 48.649 402.002 70.472 426.532 98.073 426.532 L 394.612 426.532 C 421.571 426.532 444.035 402.703 444.035 372.566 L 444.035 352.941 C 432.482 362.053 415.152 366.958 395.896 366.958 C 372.146 366.958 350.323 358.548 339.413 344.531 C 337.486 341.727 333.636 340.325 329.143 340.325 L 313.737 340.325 C 309.887 340.325 306.036 341.727 303.467 344.531 C 292.557 358.548 270.734 366.958 246.984 366.958 C 223.235 366.958 201.412 358.548 190.5 344.531 C 188.575 341.727 184.723 340.325 180.23 340.325 L 161.616 340.325 C 157.766 340.325 153.914 341.727 151.347 344.531 C 140.436 358.548 118.611 366.958 94.864 366.958 C 76.248 367.659 60.844 363.455 48.649 355.744 Z M 442.751 284.956 L 55.068 284.956 C 30.035 284.956 9.496 261.827 9.496 233.091 C 9.496 219.073 13.989 206.458 22.332 196.646 C 31.319 186.833 42.231 181.227 54.425 181.227 L 317.589 181.227 C 320.797 181.227 324.007 183.33 325.933 186.132 L 339.413 210.664 L 368.938 183.33 C 370.863 181.928 372.789 180.526 375.356 180.526 L 442.751 180.526 C 467.784 180.526 488.324 203.654 488.324 232.39 C 488.324 246.407 483.831 259.024 475.487 268.836 C 466.501 279.349 454.947 284.956 442.751 284.956 Z M 55.068 201.551 C 48.008 201.551 41.588 204.355 36.454 210.664 C 31.319 216.27 28.752 224.681 28.752 233.091 C 28.752 249.912 40.305 263.929 55.068 263.929 L 442.751 263.929 C 449.812 263.929 456.231 261.126 461.365 254.819 C 466.501 249.211 469.068 240.801 469.068 232.39 C 469.068 215.569 457.514 201.551 442.751 201.551 L 379.208 201.551 L 343.906 234.493 C 341.98 236.596 338.77 237.296 336.203 236.596 C 333.636 235.895 331.067 234.493 329.784 231.689 L 312.454 201.551 L 55.068 201.551 Z M 337.486 237.296 C 336.844 237.296 336.203 237.296 336.203 237.296 C 333.636 236.596 331.067 235.194 329.784 232.39 L 312.454 201.551 L 56.351 201.551 C 51.217 201.551 46.724 196.646 46.724 191.039 L 46.724 143.379 C 46.724 137.773 51.217 132.866 56.351 132.866 L 436.975 132.866 C 442.111 132.866 446.604 137.773 446.604 143.379 L 446.604 191.039 C 446.604 196.646 442.111 201.551 436.975 201.551 L 379.208 201.551 L 343.906 234.493 C 341.98 236.596 340.053 237.296 337.486 237.296 Z M 65.979 180.526 L 317.589 180.526 C 320.797 180.526 324.007 182.629 325.933 185.431 L 339.413 209.963 L 368.938 182.629 C 370.863 181.227 372.789 179.825 375.356 179.825 L 426.705 179.825 L 426.705 153.192 L 65.979 153.192 L 65.979 180.526 Z M 395.896 367.659 C 368.938 367.659 345.83 357.146 336.203 341.026 L 306.036 341.026 C 296.407 357.146 273.301 367.659 246.342 367.659 C 219.385 367.659 196.276 357.146 186.649 341.026 L 153.273 341.026 C 143.644 357.146 120.537 367.659 93.58 367.659 C 65.338 367.659 41.588 356.445 33.245 339.624 C 18.482 334.719 8.212 320.001 8.212 303.179 C 8.212 285.657 19.765 270.238 35.169 266.032 C 36.454 265.331 37.738 265.331 39.021 265.331 L 453.664 265.331 C 472.92 265.331 488.324 282.153 488.324 303.179 C 488.324 323.504 473.561 340.325 455.588 341.026 C 445.961 357.146 422.854 367.659 395.896 367.659 Z M 300.258 320.001 L 341.98 320.001 C 345.83 320.001 349.682 322.803 350.966 327.009 C 353.533 336.119 371.505 346.634 395.896 346.634 C 419.645 346.634 437.617 336.82 440.184 327.009 C 441.468 322.803 445.318 320.001 449.171 320.001 L 453.664 320.001 C 462.007 320.001 469.068 312.29 469.068 303.179 C 469.068 294.067 462.007 286.358 453.664 286.358 L 41.588 286.358 C 40.948 286.358 40.948 286.358 40.305 286.358 C 32.602 287.76 26.825 294.768 26.825 303.179 C 26.825 311.589 32.602 318.599 40.305 320.001 C 41.588 320.001 42.231 320.7 42.872 320.7 C 45.439 322.102 48.008 324.205 48.649 327.009 C 51.217 336.119 69.188 346.634 93.58 346.634 C 117.328 346.634 135.3 336.82 137.867 327.009 C 139.151 322.803 143.003 320.001 146.853 320.001 L 191.785 320.001 C 195.635 320.001 199.486 322.803 200.769 327.009 C 203.338 336.119 221.309 346.634 245.058 346.634 C 268.807 346.634 286.78 336.82 289.347 327.009 C 292.557 322.803 295.766 320.001 300.258 320.001 Z M 453.664 154.594 L 39.021 154.594 C 33.886 154.594 29.392 149.687 29.392 144.08 L 29.392 131.464 C 29.392 68.385 76.248 17.222 134.017 17.222 L 358.026 17.222 C 415.794 17.222 462.65 68.385 462.65 131.464 L 462.65 144.08 C 463.291 149.687 458.798 154.594 453.664 154.594 Z M 48.649 133.567 L 444.035 133.567 L 444.035 131.464 C 444.035 80.299 405.524 38.247 358.669 38.247 L 134.659 38.247 C 87.803 38.247 49.291 80.299 49.291 131.464 L 49.291 133.567 L 48.649 133.567 Z M 130.166 102.027 L 154.556 75.394 C 158.407 71.189 158.407 64.88 154.556 60.676 C 150.706 56.47 144.929 56.47 141.077 60.676 L 116.687 87.309 C 112.834 91.515 112.834 97.822 116.687 102.027 C 118.611 104.13 121.18 104.831 123.747 104.831 C 125.673 104.831 128.24 103.429 130.166 102.027 Z M 241.208 102.027 L 265.598 75.394 C 269.448 71.189 269.448 64.88 265.598 60.676 C 261.747 56.47 255.971 56.47 252.118 60.676 L 227.728 87.309 C 223.878 91.515 223.878 97.822 227.728 102.027 C 229.654 104.13 232.221 104.831 234.788 104.831 C 236.715 104.831 239.282 103.429 241.208 102.027 Z M 348.399 102.027 L 372.789 75.394 C 376.639 71.189 376.639 64.88 372.789 60.676 C 368.938 56.47 363.16 56.47 359.31 60.676 L 334.919 87.309 C 331.067 91.515 331.067 97.822 334.919 102.027 C 336.844 104.13 339.413 104.831 341.98 104.831 C 343.906 104.831 346.473 103.429 348.399 102.027 Z" style=""/>
  <path style="stroke: rgb(255, 0, 0); fill: rgb(255, 0, 0);" d="M 49.715 267.496 L 58.066 284.045 C 56.987 282.924 441.263 283.071 442.206 284.045 L 449.036 266.713 L 49.715 267.496 Z"/>
  <g id="_x31_" transform="matrix(1, 0, 0, 1, 454.041578, 200.000021)"/>
  <g id="_x32_" transform="matrix(1, 0, 0, 1, 454.041578, 200.000021)"/>
  <g id="_x33_" transform="matrix(1, 0, 0, 1, 454.041578, 200.000021)"/>
  <g id="_x35_" transform="matrix(1, 0, 0, 1, 454.041578, 200.000021)"/>
  <g id="_x36_" transform="matrix(1, 0, 0, 1, 454.041578, 200.000021)"/>
  <g id="_x37_" transform="matrix(1, 0, 0, 1, 454.041578, 200.000021)"/>
  <g id="_x38_" transform="matrix(1, 0, 0, 1, 454.041578, 200.000021)"/>
  <g id="_x39_" transform="matrix(1, 0, 0, 1, 454.041578, 200.000021)"/>
  <g id="_x31_0" transform="matrix(1, 0, 0, 1, 454.041578, 200.000021)"/>
  <g id="_x31_1" transform="matrix(1, 0, 0, 1, 454.041578, 200.000021)"/>
  <g id="_x31_2" transform="matrix(1, 0, 0, 1, 454.041578, 200.000021)"/>
  <g id="_x31_3" transform="matrix(1, 0, 0, 1, 454.041578, 200.000021)"/>
  <g id="_x31_4" transform="matrix(1, 0, 0, 1, 454.041578, 200.000021)"/>
  <g id="_x31_5" transform="matrix(1, 0, 0, 1, 454.041578, 200.000021)"/>
  <g id="_x31_6" transform="matrix(1, 0, 0, 1, 454.041578, 200.000021)"/>
  <g id="_x31_7" transform="matrix(1, 0, 0, 1, 454.041578, 200.000021)"/>
  <g id="_x31_8" transform="matrix(1, 0, 0, 1, 454.041578, 200.000021)"/>
  <g id="_x31_9" transform="matrix(1, 0, 0, 1, 454.041578, 200.000021)"/>
  <g id="_x32_0" transform="matrix(1, 0, 0, 1, 454.041578, 200.000021)"/>
  <g id="_x32_1" transform="matrix(1, 0, 0, 1, 454.041578, 200.000021)"/>
  <g id="_x32_2" transform="matrix(1, 0, 0, 1, 454.041578, 200.000021)"/>
  <g id="_x32_3" transform="matrix(1, 0, 0, 1, 454.041578, 200.000021)"/>
  <g id="_x32_4" transform="matrix(1, 0, 0, 1, 454.041578, 200.000021)"/>
</svg>