<?xml version="1.0" encoding="UTF-8"?>
<svg width="24px" height="24px" viewBox="0 0 14 14" version="1.1" xmlns="http://www.w3.org/2000/svg" xmlns:xlink="http://www.w3.org/1999/xlink">
    <title>5C6D544C-51EF-4299-8182-76BC87835182</title>
    <desc>Created with sketchtool.</desc>
    <g id="Social-Icons" stroke="none" stroke-width="1" fill="none" fill-rule="evenodd">
        <g id="social-icons" transform="translate(-39.000000, -5.000000)" fill="#DADBE0">
            <g id="social-bar">
                <g id="social-menu" transform="translate(10.000000, 0.000000)">
                    <g id="social-default">
                        <g id="molecule/button/social/button-social-instagram-atom/button/social/button-social-small" transform="translate(24.000000, 0.000000)">
                            <g id="icon/social/negative/instagram-atom/icon/social/icon-social-instagram" transform="translate(5.000000, 5.000000)">
                                <path d="M8.57475142,8.57475142 C9.0097678,8.13973504 9.22727273,7.61482315 9.22727273,7 C9.22727273,6.38517685 9.0097678,5.86026496 8.57475142,5.42524858 C8.13973504,4.9902322 7.61482315,4.77272727 7,4.77272727 C6.38517685,4.77272727 5.86026496,4.9902322 5.42524858,5.42524858 C4.9902322,5.86026496 4.77272727,6.38517685 4.77272727,7 C4.77272727,7.61482315 4.9902322,8.13973504 5.42524858,8.57475142 C5.86026496,9.0097678 6.38517685,9.22727273 7,9.22727273 C7.61482315,9.22727273 8.13973504,9.0097678 8.57475142,8.57475142 Z M9.4784264,4.5215736 C10.1594789,5.20262608 10.5,6.02875995 10.5,7 C10.5,7.97124005 10.1594789,8.79737392 9.4784264,9.4784264 C8.79737392,10.1594789 7.97124005,10.5 7,10.5 C6.02875995,10.5 5.20262608,10.1594789 4.5215736,9.4784264 C3.84052113,8.79737392 3.5,7.97124005 3.5,7 C3.5,6.02875995 3.84052113,5.20262608 4.5215736,4.5215736 C5.20262608,3.84052113 6.02875995,3.5 7,3.5 C7.97124005,3.5 8.79737392,3.84052113 9.4784264,4.5215736 Z M11.2210968,2.77890316 C11.37673,2.93453635 11.4545455,3.12186979 11.4545455,3.34090909 C11.4545455,3.55994839 11.37673,3.74728183 11.2210968,3.90291502 C11.0654636,4.05854821 10.8781302,4.13636364 10.6590909,4.13636364 C10.4400516,4.13636364 10.2527182,4.05854821 10.097085,3.90291502 C9.94145179,3.74728183 9.86363636,3.55994839 9.86363636,3.34090909 C9.86363636,3.12186979 9.94145179,2.93453635 10.097085,2.77890316 C10.2527182,2.62326997 10.4400516,2.54545455 10.6590909,2.54545455 C10.8781302,2.54545455 11.0654636,2.62326997 11.2210968,2.77890316 Z M7.65174936,1.59734084 L7,1.59734084 C6.9599801,1.59734084 6.74130323,1.59591158 6.34396282,1.59305301 C5.9466224,1.59019445 5.64504841,1.59019445 5.4392318,1.59305301 C5.23341518,1.59591158 4.95756788,1.60448714 4.61168162,1.61877996 C4.26579537,1.63307278 3.97136768,1.661658 3.72838973,1.70453646 C3.48541178,1.74741492 3.28102751,1.80029756 3.11523079,1.86318597 C2.82937438,1.97752854 2.57782451,2.14332277 2.36057364,2.36057364 C2.14332277,2.57782451 1.97752854,2.82937438 1.86318597,3.11523079 C1.80029756,3.28102751 1.74741492,3.48541178 1.70453646,3.72838973 C1.661658,3.97136768 1.63307278,4.26579537 1.61877996,4.61168162 C1.60448714,4.95756788 1.59591158,5.23341518 1.59305301,5.4392318 C1.59019445,5.64504841 1.59019445,5.9466224 1.59305301,6.34396282 C1.59591158,6.74130323 1.59734084,6.9599801 1.59734084,7 C1.59734084,7.0400199 1.59591158,7.25869677 1.59305301,7.65603718 C1.59019445,8.0533776 1.59019445,8.35495159 1.59305301,8.5607682 C1.59591158,8.76658482 1.60448714,9.04243212 1.61877996,9.38831838 C1.63307278,9.73420463 1.661658,10.0286323 1.70453646,10.2716103 C1.74741492,10.5145882 1.80029756,10.7189725 1.86318597,10.8847692 C1.97752854,11.1706256 2.14332277,11.4221755 2.36057364,11.6394264 C2.57782451,11.8566772 2.82937438,12.0224715 3.11523079,12.136814 C3.28102751,12.1997024 3.48541178,12.2525851 3.72838973,12.2954635 C3.97136768,12.338342 4.26579537,12.3669272 4.61168162,12.38122 C4.95756788,12.3955129 5.23341518,12.4040884 5.4392318,12.406947 C5.64504841,12.4098056 5.9466224,12.4098056 6.34396282,12.406947 C6.74130323,12.4040884 6.9599801,12.4026592 7,12.4026592 C7.0400199,12.4026592 7.25869677,12.4040884 7.65603718,12.406947 C8.0533776,12.4098056 8.35495159,12.4098056 8.5607682,12.406947 C8.76658482,12.4040884 9.04243212,12.3955129 9.38831838,12.38122 C9.73420463,12.3669272 10.0286323,12.338342 10.2716103,12.2954635 C10.5145882,12.2525851 10.7189725,12.1997024 10.8847692,12.136814 C11.1706256,12.0224715 11.4221755,11.8566772 11.6394264,11.6394264 C11.8566772,11.4221755 12.0224715,11.1706256 12.136814,10.8847692 C12.1997024,10.7189725 12.2525851,10.5145882 12.2954635,10.2716103 C12.338342,10.0286323 12.3669272,9.73420463 12.38122,9.38831838 C12.3955129,9.04243212 12.4040884,8.76658482 12.406947,8.5607682 C12.4098056,8.35495159 12.4098056,8.0533776 12.406947,7.65603718 C12.4040884,7.25869677 12.4026592,7.0400199 12.4026592,7 C12.4026592,6.9599801 12.4040884,6.74130323 12.406947,6.34396282 C12.4098056,5.9466224 12.4098056,5.64504841 12.406947,5.4392318 C12.4040884,5.23341518 12.3955129,4.95756788 12.38122,4.61168162 C12.3669272,4.26579537 12.338342,3.97136768 12.2954635,3.72838973 C12.2525851,3.48541178 12.1997024,3.28102751 12.136814,3.11523079 C12.0224715,2.82937438 11.8566772,2.57782451 11.6394264,2.36057364 C11.4221755,2.14332277 11.1706256,1.97752854 10.8847692,1.86318597 C10.7189725,1.80029756 10.5145882,1.74741492 10.2716103,1.70453646 C10.0286323,1.661658 9.73420463,1.63307278 9.38831838,1.61877996 C9.04243212,1.60448714 8.76658482,1.59591158 8.5607682,1.59305301 C8.35495159,1.59019445 8.05194834,1.59162371 7.65174936,1.59734084 Z M13.6383168,4.24200994 C13.6673179,4.75242916 13.6818182,5.67174999 13.6818182,7 C13.6818182,8.32825001 13.6673179,9.24757084 13.6383168,9.75799006 C13.5803146,10.9644355 13.2207064,11.8982566 12.5594815,12.5594815 C11.8982566,13.2207064 10.9644355,13.5803146 9.75799006,13.6383168 C9.24757084,13.6673179 8.32825001,13.6818182 7,13.6818182 C5.67174999,13.6818182 4.75242916,13.6673179 4.24200994,13.6383168 C3.03556452,13.5803146 2.10174336,13.2207064 1.44051847,12.5594815 C0.779293569,11.8982566 0.419685423,10.9644355 0.361683239,9.75799006 C0.332682147,9.24757084 0.318181818,8.32825001 0.318181818,7 C0.318181818,5.67174999 0.332682147,4.75242916 0.361683239,4.24200994 C0.419685423,3.03556452 0.779293569,2.10174336 1.44051847,1.44051847 C2.10174336,0.779293569 3.03556452,0.419685423 4.24200994,0.361683239 C4.75242916,0.332682147 5.67174999,0.318181818 7,0.318181818 C8.32825001,0.318181818 9.24757084,0.332682147 9.75799006,0.361683239 C10.9644355,0.419685423 11.8982566,0.779293569 12.5594815,1.44051847 C13.2207064,2.10174336 13.5803146,3.03556452 13.6383168,4.24200994 Z" id="instagram"></path>
                            </g>
                        </g>
                    </g>
                </g>
            </g>
        </g>
    </g>
</svg>