<?xml version="1.0" encoding="UTF-8"?>
<svg width="24px" height="22px" viewBox="0 0 14 12" version="1.1" xmlns="http://www.w3.org/2000/svg" xmlns:xlink="http://www.w3.org/1999/xlink">

    <title>5BD8A41A-C5BB-4E75-B338-0D4B80506805</title>
    <desc>Created with sketchtool.</desc>
    <g id="Social-Icons" stroke="none" stroke-width="1" fill="none" fill-rule="evenodd">
        <g id="social-icons" transform="translate(-87.000000, -6.000000)" fill="#DADBE0">
            <g id="social-bar">
                <g id="social-menu" transform="translate(10.000000, 0.000000)">
                    <g id="social-default">
                        <g id="molecule/button/social/button-social-twitter-atom/button/social/button-social-small" transform="translate(72.000000, 0.000000)">
                            <g id="icon/social/negative/instagram-atom/icon/social/icon-social-twitter" transform="translate(5.000000, 5.000000)">
                                <path d="M13.6818182,2.87978773 C13.3030669,3.4337822 12.8451804,3.90580101 12.3081449,4.29585834 C12.3137979,4.37500041 12.3166244,4.49371173 12.3166244,4.65199586 C12.3166244,5.38688648 12.2092189,6.12035284 11.9944047,6.85241696 C11.7795905,7.58448107 11.4531344,8.28685638 11.0150265,8.95956394 C10.5769187,9.63227151 10.0554368,10.2272413 9.4505653,10.7444913 C8.84569379,11.2617412 8.11646712,11.6744044 7.26286341,11.9824931 C6.40925969,12.2905819 5.49631312,12.4446239 4.52399631,12.4446239 C2.99203203,12.4446239 1.59010788,12.0347873 0.318181818,11.2151016 C0.516036984,11.2377136 0.736500861,11.2490194 0.979580065,11.2490194 C2.25150613,11.2490194 3.38491658,10.8589679 4.37984541,10.0788533 C3.78627991,10.0675473 3.25490544,9.88524061 2.78570605,9.53192781 C2.31650665,9.17861501 1.99429022,8.72779465 1.81904707,8.17945319 C2.00559623,8.20771821 2.17801028,8.22185051 2.33629442,8.22185051 C2.57937362,8.22185051 2.81962272,8.19075945 3.05704892,8.1285764 C2.42391239,7.99855729 1.89960406,7.683407 1.48410821,7.18311608 C1.06861237,6.68282516 0.860867559,6.10198764 0.860867559,5.44058608 L0.860867559,5.40666822 C1.24527188,5.6214824 1.65793504,5.73736726 2.0988694,5.75432627 C1.72577109,5.50559406 1.4289928,5.18055117 1.20852561,4.77918783 C0.988058427,4.37782449 0.877826488,3.94254966 0.877826488,3.47335026 C0.877826488,2.97588584 1.00219073,2.51517287 1.25092293,2.09119751 C1.93493651,2.93349522 2.76732897,3.60760592 3.74812529,4.11354985 C4.72892161,4.61949377 5.77895149,4.90072654 6.89824642,4.95725659 C6.85302239,4.74244241 6.83041071,4.53328437 6.83041071,4.3297762 C6.83041071,3.57227356 7.09751117,2.92642746 7.63172012,2.39221851 C8.16592907,1.85800956 8.81177517,1.59090909 9.5692778,1.59090909 C10.3606985,1.59090909 11.027743,1.87920801 11.5704315,2.45581449 C12.186609,2.33710139 12.7660333,2.11663752 13.3087217,1.79441624 C13.0995606,2.44451179 12.6982032,2.94762167 12.1046377,3.30376097 C12.6303672,3.24723092 13.1560887,3.10590792 13.6818182,2.87978773 Z" id="twitter"></path>
                            </g>
                        </g>
                    </g>
                </g>
            </g>
        </g>
    </g>
</svg>