<?xml version="1.0" encoding="UTF-8"?>
<svg width="20px" height="24px" viewBox="0 0 12 14" version="1.1" xmlns="http://www.w3.org/2000/svg" xmlns:xlink="http://www.w3.org/1999/xlink">

    <title>C2487B53-3712-478A-BE22-A7467E345663</title>
    <desc>Created with sketchtool.</desc>
    <g id="Social-Icons" stroke="none" stroke-width="1" fill="none" fill-rule="evenodd">
        <g id="social-icons" transform="translate(-64.000000, -5.000000)" fill="#DADBE0">
            <g id="social-bar">
                <g id="social-menu" transform="translate(10.000000, 0.000000)">
                    <g id="social-default">
                        <g id="molecule/button/social/button-social-youtube-atom/button/social/button-social-small" transform="translate(48.000000, 0.000000)">
                            <g id="icon/social/negative/instagram-atom/icon/social/icon-social-youtube" transform="translate(5.000000, 5.000000)">
                                <path d="M7.11935672,5.98170142 C8.9625989,5.98170142 10.3411676,6.03134524 11.2552195,6.13068508 C11.5434512,6.16547752 11.7980128,6.28225273 12.0191914,6.48090631 C12.2401873,6.6795599 12.3831678,6.92542992 12.447663,7.21862079 C12.5767317,7.77506486 12.6414357,8.64453644 12.6414357,9.82690503 C12.6414357,10.9894109 12.5767578,11.8587781 12.4476108,12.4351632 C12.3781042,12.7281452 12.2340275,12.9742502 12.0153807,13.1727994 C11.7967077,13.3715312 11.543399,13.4857747 11.2551672,13.5156079 C10.4065745,13.6124813 9.1569818,13.6643889 7.50722512,13.6713101 L6.73157038,13.6713101 C5.08173976,13.6643889 3.83234963,13.6124813 2.98344178,13.5156079 C2.69534057,13.4857747 2.44072676,13.3715312 2.21965254,13.1727994 C1.99857833,12.9742241 1.85572836,12.7281452 1.79105045,12.4351632 C1.66190343,11.878693 1.59730382,11.0092475 1.59730382,9.82690503 C1.59730382,8.66437309 1.66190343,7.79500591 1.79105045,7.21862079 C1.86063532,6.92553433 2.00471203,6.6796382 2.22333276,6.48090631 C2.4420057,6.28225273 2.69784626,6.16547752 2.99088052,6.13068508 C3.90005151,6.03137134 5.27616674,5.98170142 7.11935672,5.98170142 Z M5.50976943,8.53021466 L4.84654678,8.53021466 L4.84654678,11.443879 C4.84654678,11.6872694 4.86651393,11.8686965 4.90621333,11.9879252 C4.96574937,12.1716752 5.10985218,12.2636546 5.33833903,12.2636546 C5.54698925,12.2636546 5.76712995,12.1476705 5.99862126,11.9155801 L6.09852635,11.8090038 L6.09852635,12.2115051 L6.7617751,12.2115051 L6.7617751,8.53021466 L6.09855245,8.53021466 L6.09855245,11.3470448 C5.94956879,11.555695 5.80789336,11.6600201 5.67378719,11.6600201 C5.58431346,11.6600201 5.53219006,11.6078706 5.51728648,11.5035455 C5.51327739,11.4916018 5.51087193,11.4335368 5.51007011,11.3294307 L5.50976943,8.53021466 Z M8.00634189,7.27095307 L7.34322366,7.27095307 L7.34322366,12.2115835 L8.00634189,12.2115835 L8.00634189,11.8539496 C8.23002618,12.1270168 8.46099262,12.2636547 8.6994761,12.2636547 C8.96771455,12.2636547 9.1439475,12.1270168 9.22861866,11.8539496 C9.26676319,11.7389344 9.288608,11.5398893 9.29407092,11.2569951 L9.29543684,11.1085615 L9.29543684,9.64075391 C9.29543684,9.27808256 9.27309451,9.03218643 9.22861866,8.90303941 C9.1439475,8.62488262 8.96771455,8.48573897 8.6994761,8.48573897 C8.48649315,8.48573897 8.28641574,8.58430431 8.09899732,8.78131994 L8.00634189,8.88803142 L8.00634189,7.27095307 Z M10.8230936,8.48553012 C10.4851658,8.48553012 10.2193808,8.61219755 10.0255298,8.86550632 C9.90639805,9.02307344 9.83833236,9.25728757 9.82131627,9.56813229 L9.81706229,9.72994045 L9.81706229,11.0192181 C9.81706229,11.4116967 9.88904844,11.6998501 10.0330469,11.8836784 C10.2268718,12.1369349 10.4951886,12.2636546 10.8378145,12.2636546 C11.1954483,12.2636546 11.4639478,12.1320019 11.6427909,11.8686704 C11.7324473,11.734512 11.7844663,11.6003536 11.7992655,11.4663779 C11.8074655,11.429032 11.8123667,11.3228088 11.8137726,11.147527 L11.8141952,10.9372354 L11.1360689,10.9372354 C11.1360689,11.1905702 11.1309792,11.3420596 11.1211653,11.3917034 C11.0864251,11.5707031 10.9869808,11.6600202 10.8230936,11.6600202 C10.6199245,11.6600202 10.5071456,11.5246721 10.4845919,11.2538293 L10.4803633,11.1459117 L10.4803633,10.4975926 L11.8142213,10.4975926 L11.8142213,9.72994045 C11.8142213,9.33748803 11.7472987,9.04933463 11.6129837,8.86550632 C11.4194981,8.61219755 11.15601,8.48553012 10.8230936,8.48553012 Z M4.74979094,7.27095307 L2.42475305,7.27095307 L2.42475305,7.97142166 L3.20725662,7.97142166 L3.20725662,12.2115052 L3.95240988,12.2115052 L3.95240988,7.97142166 L4.74979094,7.97142166 L4.74979094,7.27095307 Z M8.34147673,9.08919031 C8.51109638,9.08919031 8.60647746,9.2165849 8.6276899,9.47146151 L8.63224022,9.58849962 L8.63224022,11.1607106 C8.63224022,11.4937052 8.53511895,11.6600199 8.34147673,11.6600199 C8.25001935,11.6600199 8.16024912,11.6250573 8.07203242,11.555132 L8.00615909,11.4961326 L8.00615909,9.25318197 C8.11549556,9.1440282 8.227155,9.08919031 8.34147673,9.08919031 Z M10.8156813,9.08919031 C11.0143262,9.08919031 11.1247463,9.2225792 11.1468317,9.48946697 L11.1509728,9.59580786 L11.1509728,9.93861646 L10.4803637,9.93861646 L10.4803637,9.59580786 C10.4803637,9.25819333 10.5921275,9.08919031 10.8156813,9.08919031 Z M6.96298661,1.54774077 C7.3057952,1.54774077 7.56902229,1.67443431 7.75285059,1.92779529 C7.87198233,2.0853624 7.94018226,2.3214558 7.95723669,2.63594398 L7.9615008,2.79972036 L7.9615008,4.10387555 C7.9615008,4.50622019 7.89202033,4.79935887 7.75285059,4.98318717 C7.56902229,5.23654815 7.3057952,5.36324168 6.96298661,5.36324168 C6.63001805,5.36324168 6.36927054,5.23654815 6.18048308,4.98316107 C6.06123948,4.82136561 5.9931578,4.58286561 5.97613944,4.26777612 L5.97188507,4.10384945 L5.97188507,2.79972036 C5.97188507,2.40233488 6.04144384,2.11162359 6.18048308,1.92779529 C6.36919224,1.67443431 6.63004415,1.54774077 6.96298661,1.54774077 Z M9.19092942,1.59247758 L9.19122989,4.41637943 C9.19203088,4.52288511 9.19443215,4.58016918 9.19842036,4.58812472 C9.21324565,4.69740899 9.26542125,4.75203808 9.35492108,4.75203808 C9.48923607,4.75203808 9.63072879,4.64531169 9.77981686,4.4316501 L9.77981686,4.4316501 L9.77981686,1.59247758 L10.4579431,1.59247758 L10.4579431,5.31098785 L9.77981686,5.31098785 L9.77981686,4.90112615 C9.51658976,5.20922062 9.2606709,5.36324176 9.01211248,5.36324176 C8.78362561,5.36324176 8.63712153,5.27128845 8.57246971,5.08746014 C8.53282252,4.96815314 8.51280316,4.78192355 8.51280316,4.52861477 L8.51280316,4.52861477 L8.51280316,1.59247758 L9.19092942,1.59247758 Z M4.16860317,0.318181818 L4.69774574,2.27806875 L5.20436328,0.318181818 L5.9644462,0.318181818 L5.06289667,3.29151267 L5.06289667,5.31106615 L4.31774344,5.31106615 L4.31774344,3.29151267 C4.24810637,2.92396046 4.09666922,2.39727135 3.8631449,1.71173245 C3.72527367,1.32793246 3.59998469,0.970721082 3.48726693,0.64003225 L3.37873918,0.318181818 L4.16860317,0.318181818 Z M6.96298659,2.15134908 C6.7730652,2.15134908 6.66755332,2.28677963 6.64645094,2.55764073 L6.64249425,2.66556195 L6.64249425,4.23043851 C6.64249425,4.57820625 6.74932503,4.75206402 6.96298659,4.75206402 C7.15290798,4.75206402 7.25833738,4.61477741 7.27942142,4.33994755 L7.28337454,4.23043851 L7.28337454,2.66556195 C7.28337454,2.32275337 7.17664816,2.15134908 6.96298659,2.15134908 Z" id="youtube"></path>
                            </g>
                        </g>
                    </g>
                </g>
            </g>
        </g>
    </g>
</svg>